{"title":"Brazzers live 8 MILF Xmas xXx Jewels Jade, Francesca Le, Shay Si","uid":6083564,"size":2445995956,"categoryP":"porn","categoryS":"movie_clips","magnet":"?xt=urn:btih:96a1f1a1bd01306c3c5dd0552bdef41cd24fa236&amp;dn=Brazzers+live+8+MILF+Xmas+xXx+Jewels+Jade%2C+Francesca+Le%2C+Shay+Si&amp;tr=udp%3A%2F%2Ftracker.openbittorrent.com%3A80&amp;tr=udp%3A%2F%2Fopen.demonii.com%3A1337&amp;tr=udp%3A%2F%2Ftracker.coppersurfer.tk%3A6969&amp;tr=udp%3A%2F%2Fexodus.desync.com%3A6969","seeders":0,"leechers":1,"uploader":"amanrulz","files":2,"time":1294220065,"description":"mastitorrents.com\n &lt;a href=&quot;\nhttp://mastitorrents.com/forums/index.php&quot; rel=&quot;nofollow&quot; target=&quot;_NEW&quot;&gt;\nhttp://mastitorrents.com/forums/index.php&lt;/a&gt;\n\nBrazzers Live 8\n\nDecember 14th, 2010 Brazzers Live Show.\n\nPornstars: Jewels Jade, Francesca Le, Shay Sights &amp; Veronica Avluv \n\nFormat : MPEG-4 \nFormat profile : Base Media / Version 2 \nCodec ID : mp42 \nFile size : 2.28 GiB \nDuration : 1h 44mn \nOverall bit rate : 3 127 Kbps \n\nVideo \nID : 1 \nFormat : AVC \nFormat/Info : Advanced Video Codec \nFormat profile : &lt;a class=&quot;__cf_email__&quot; href=&quot;/cdn-cgi/l/email-protection&quot; data-cfemail=&quot;a0edc1c9cee0ec918e93&quot;&gt;[email&amp;#160;protected]&lt;/a&gt;&lt;script cf-hash='f9e31' type=&quot;text/javascript&quot;&gt;\n/* &lt;![CDATA[ */!function(){try{var t=&quot;currentScript&quot;in document?document.currentScript:function(){for(var t=document.getElementsByTagName(&quot;script&quot;),e=t.length;e--;)if(t[e].getAttribute(&quot;cf-hash&quot;))return t[e]}();if(t&amp;&amp;t.previousSibling){var e,r,n,i,c=t.previousSibling,a=c.getAttribute(&quot;data-cfemail&quot;);if(a){for(e=&quot;&quot;,r=parseInt(a.substr(0,2),16),n=2;a.length-n;n+=2)i=parseInt(a.substr(n,2),16)^r,e+=String.fromCharCode(i);e=document.createTextNode(e),c.parentNode.replaceChild(e,c)}}}catch(u){}}();/* ]]&gt; */&lt;/script&gt; \nFormat settings, CABAC : Yes \nFormat settings, ReFrames : 2 frames \nFormat settings, GOP : M=1, N=18 \nCodec ID : avc1 \nCodec ID/Info : Advanced Video Coding \nDuration : 1h 44mn \nBit rate mode : Variable \nBit rate : 2 993 Kbps \nWidth : 856 pixels \nHeight : 480 pixels \nDisplay aspect ratio : 16:9 \nFrame rate mode : Constant \nFrame rate : 29.970 fps \nColor space : YUV \nChroma subsampling : 4:2:0 \nBit depth : 8 bits \nScan type : Progressive \nBits/(Pixel*Frame) : 0.243 \nStream size : 2.18 GiB (96%) \nLanguage : English \n\n\nAudio \nID : 2 \nFormat : AAC \nFormat/Info : Advanced Audio Codec \nFormat version : Version 4 \nFormat profile : LC \nCodec ID : 40 \nDuration : 1h 44mn \nBit rate mode : Constant \nBit rate : 128 Kbps \nChannel(s) : 2 channels \nChannel positions : Front: L R \nSampling rate : 48.0 KHz \nCompression mode : Lossy \nStream size : 93.5 MiB (4%) \nLanguage : English","torrent":{"xt":"urn:btih:96a1f1a1bd01306c3c5dd0552bdef41cd24fa236","amp;dn":"Brazzers+live+8+MILF+Xmas+xXx+Jewels+Jade%2C+Francesca+Le%2C+Shay+Si","amp;tr":["udp%3A%2F%2Ftracker.openbittorrent.com%3A80","udp%3A%2F%2Fopen.demonii.com%3A1337","udp%3A%2F%2Ftracker.coppersurfer.tk%3A6969","udp%3A%2F%2Fexodus.desync.com%3A6969"],"infoHash":"96a1f1a1bd01306c3c5dd0552bdef41cd24fa236","infoHashBuffer":{"type":"Buffer","data":[150,161,241,161,189,1,48,108,60,93,208,85,43,222,244,28,210,79,162,54]},"announce":[],"urlList":[]}}